# xmcd CD database file
#
# Track frame offsets:
#	150
#	14202
#	32550
#	52642
#	71487
#	85157
#	99132
#	116850
#	132707
#	150035
#	165982
#	182705
#	200867
#	211757
#
# Disc length: 2982 seconds
#
# Revision: 0
# Processed by: cddbd v1.4PL0 Copyright (c) Steve Scherf et al.
# Submitted via: CDex 1.51
#
DISCID=b20ba40e
DTITLE=Lisa Margo - Climats
DYEAR=2003
DGENRE=Jazz
TTITLE0=Bubble gum
TTITLE1=Toi
TTITLE2=Esquisse
TTITLE3=J'ai pas un rond
TTITLE4=Signe de faiblesse
TTITLE5=Kayak kaki
TTITLE6=De vouzamoi
TTITLE7=Promenade
TTITLE8=Pollution
TTITLE9=Keskifait
TTITLE10=Quiproquos
TTITLE11=Un plein d'illusions
TTITLE12=Toaster
TTITLE13=Mirliton
EXTD=YEAR: 2003
EXTT0=
EXTT1=
EXTT2=
EXTT3=
EXTT4=
EXTT5=
EXTT6=
EXTT7=
EXTT8=
EXTT9=
EXTT10=
EXTT11=
EXTT12=
EXTT13=
PLAYORDER=
